{
  "accessors": [
    {
      "bufferView": 2,
      "componentType": 5126,
      "count": 3084,
      "max": [
        52.448299407958984,
        224.8715057373047,
        5.426700115203857
      ],
      "min": [
        -37.50699996948242,
        0.0,
        -5.426700115203857
      ],
      "type": "VEC3"
    },
    {
      "bufferView": 2,
      "byteOffset": 37008,
      "componentType": 5126,
      "count": 3084,
      "max": [
        0.9665330052375793,
        0.9669910669326782,
        0.9979490637779236
      ],
      "min": [
        -0.9665529727935791,
        -0.9671869277954102,
        -0.9979497194290161
      ],
      "type": "VEC3"
    },
    {
      "bufferView": 1,
      "componentType": 5126,
      "count": 3084,
      "max": [
        7.868103758274161e+34,
        1.8610514635354957e+34
      ],
      "min": [
        -1.3405604649093874e-30,
        0.0
      ],
      "type": "VEC2"
    },
    {
      "bufferView": 0,
      "componentType": 5125,
      "count": 3084,
      "type": "SCALAR"
    }
  ],
  "asset": {
    "extras": {
      "author": "IronEqual (https://sketchfab.com/ie-niels)",
      "license": "CC-BY-4.0 (http://creativecommons.org/licenses/by/4.0/)",
      "source": "https://sketchfab.com/3d-models/fish-hook-from-poly-by-google-927dea47c26a48fb8d2c99f8b12bfce2",
      "title": "Fish hook from Poly by Google"
    },
    "generator": "Sketchfab-12.65.0",
    "version": "2.0"
  },
  "bufferViews": [
    {
      "buffer": 0,
      "byteLength": 12336,
      "name": "floatBufferViews",
      "target": 34963
    },
    {
      "buffer": 0,
      "byteLength": 24672,
      "byteOffset": 12336,
      "byteStride": 8,
      "name": "floatBufferViews",
      "target": 34962
    },
    {
      "buffer": 0,
      "byteLength": 74016,
      "byteOffset": 37008,
      "byteStride": 12,
      "name": "floatBufferViews",
      "target": 34962
    }
  ],
  "buffers": [
    {
      "byteLength": 111024,
      "uri": "scene.bin"
    }
  ],
  "materials": [
    {
      "doubleSided": true,
      "name": "default",
      "pbrMetallicRoughness": {
        "metallicFactor": 0.0,
        "roughnessFactor": 0.969948
      }
    }
  ],
  "meshes": [
    {
      "name": "Object_0",
      "primitives": [
        {
          "attributes": {
            "NORMAL": 1,
            "POSITION": 0,
            "TEXCOORD_0": 2
          },
          "indices": 3,
          "material": 0,
          "mode": 4
        }
      ]
    }
  ],
  "nodes": [
    {
      "children": [
        1
      ],
      "matrix": [
        1.0,
        0.0,
        0.0,
        0.0,
        0.0,
        2.220446049250313e-16,
        -1.0,
        0.0,
        0.0,
        1.0,
        2.220446049250313e-16,
        0.0,
        0.0,
        0.0,
        0.0,
        1.0
      ],
      "name": "Sketchfab_model"
    },
    {
      "children": [
        2
      ],
      "name": "root"
    },
    {
      "children": [
        3
      ],
      "matrix": [
        1.0,
        0.0,
        0.0,
        0.0,
        0.0,
        2.220446049250313e-16,
        1.0,
        0.0,
        0.0,
        -1.0,
        2.220446049250313e-16,
        0.0,
        0.0,
        0.0,
        0.0,
        1.0
      ],
      "name": "GLTF_SceneRootNode"
    },
    {
      "children": [
        4
      ],
      "name": "node-0_0"
    },
    {
      "mesh": 0,
      "name": "Object_4"
    }
  ],
  "scene": 0,
  "scenes": [
    {
      "name": "Sketchfab_Scene",
      "nodes": [
        0
      ]
    }
  ]
}
