{
	"asset":{
		"generator":"Khronos glTF Blender I/O v4.0.44",
		"version":"2.0"
	},
	"scene":0,
	"scenes":[
		{
			"name":"Scene",
			"nodes":[
				5
			]
		}
	],
	"nodes":[
		{
			"mesh":0,
			"name":"Cube_0"
		},
		{
			"children":[
				0
			],
			"name":"Cube.001"
		},
		{
			"name":"Lamp.001"
		},
		{
			"children":[
				2
			],
			"name":"Lamp",
			"rotation":[
				0.16907529532909393,
				0.27217087149620056,
				0.7558793425559998,
				0.5709494352340698
			],
			"scale":[
				0.9999976754188538,
				0.9999959468841553,
				0.9999961256980896
			],
			"translation":[
				4.076250076293945,
				1.0054500102996826,
				5.903860092163086
			]
		},
		{
			"children":[
				1,
				3
			],
			"name":"Root"
		},
		{
			"children":[
				4
			],
			"name":"Sketchfab_model",
			"rotation":[
				-0.70710688829422,
				0,
				0,
				0.7071066498756409
			]
		}
	],
	"materials":[
		{
			"doubleSided":true,
			"name":"Material.001",
			"pbrMetallicRoughness":{
				"baseColorFactor":[
					0.7999992966651917,
					0.20419231057167053,
					0.20419231057167053,
					1
				],
				"metallicFactor":0,
				"roughnessFactor":0.4000000059604645
			}
		}
	],
	"meshes":[
		{
			"name":"Cube_0",
			"primitives":[
				{
					"attributes":{
						"POSITION":0,
						"NORMAL":1,
						"TEXCOORD_0":2
					},
					"indices":3,
					"material":0
				}
			]
		}
	],
	"accessors":[
		{
			"bufferView":0,
			"componentType":5126,
			"count":644,
			"max":[
				2.0410499572753906,
				2.252729892730713,
				4.0517802238464355
			],
			"min":[
				-1.0144100189208984,
				-4.092440128326416,
				-1.4371999502182007
			],
			"type":"VEC3"
		},
		{
			"bufferView":1,
			"componentType":5126,
			"count":644,
			"type":"VEC3"
		},
		{
			"bufferView":2,
			"componentType":5126,
			"count":644,
			"type":"VEC2"
		},
		{
			"bufferView":3,
			"componentType":5123,
			"count":960,
			"type":"SCALAR"
		}
	],
	"bufferViews":[
		{
			"buffer":0,
			"byteLength":7728,
			"byteOffset":0,
			"target":34962
		},
		{
			"buffer":0,
			"byteLength":7728,
			"byteOffset":7728,
			"target":34962
		},
		{
			"buffer":0,
			"byteLength":5152,
			"byteOffset":15456,
			"target":34962
		},
		{
			"buffer":0,
			"byteLength":1920,
			"byteOffset":20608,
			"target":34963
		}
	],
	"buffers":[
		{
			"byteLength":22528,
			"uri":"worm2.bin"
		}
	]
}
