{
  "accessors": [
    {
      "bufferView": 2,
      "componentType": 5126,
      "count": 1490,
      "max": [
        5.224274158477783,
        9.999999046325684,
        5.484547138214111
      ],
      "min": [
        -5.2242751121521,
        0.21041199564933777,
        -4.795982837677002
      ],
      "type": "VEC3"
    },
    {
      "bufferView": 2,
      "byteOffset": 17880,
      "componentType": 5126,
      "count": 1490,
      "max": [
        0.9904338121414185,
        0.9861549735069275,
        0.9999167919158936
      ],
      "min": [
        -0.9904338121414185,
        -0.9906951785087585,
        -0.9999167919158936
      ],
      "type": "VEC3"
    },
    {
      "bufferView": 1,
      "componentType": 5126,
      "count": 1490,
      "max": [
        1.1049153205986303e+36,
        7.5550769749204825e+31
      ],
      "min": [
        0.0,
        0.0
      ],
      "type": "VEC2"
    },
    {
      "bufferView": 0,
      "componentType": 5125,
      "count": 1512,
      "type": "SCALAR"
    },
    {
      "bufferView": 2,
      "byteOffset": 35760,
      "componentType": 5126,
      "count": 933,
      "max": [
        6.53803014755249,
        9.576748847961426,
        4.865382194519043
      ],
      "min": [
        -6.347289085388184,
        1.9999999949504854e-06,
        -6.328901767730713
      ],
      "type": "VEC3"
    },
    {
      "bufferView": 2,
      "byteOffset": 46956,
      "componentType": 5126,
      "count": 933,
      "max": [
        0.999702513217926,
        0.8939494490623474,
        0.9812853932380676
      ],
      "min": [
        -0.999702513217926,
        -0.9086704254150391,
        -0.9909575581550598
      ],
      "type": "VEC3"
    },
    {
      "bufferView": 1,
      "byteOffset": 11920,
      "componentType": 5126,
      "count": 933,
      "max": [
        1.1049153205986303e+36,
        7.5550769749204825e+31
      ],
      "min": [
        -2.4093129634857178,
        -2.4093129634857178
      ],
      "type": "VEC2"
    },
    {
      "bufferView": 0,
      "byteOffset": 6048,
      "componentType": 5125,
      "count": 954,
      "type": "SCALAR"
    },
    {
      "bufferView": 2,
      "byteOffset": 58152,
      "componentType": 5126,
      "count": 238,
      "max": [
        2.409316062927246,
        7.6184821128845215,
        4.630370140075684
      ],
      "min": [
        -2.4093129634857178,
        6.9300360679626465,
        4.103960990905762
      ],
      "type": "VEC3"
    },
    {
      "bufferView": 2,
      "byteOffset": 61008,
      "componentType": 5126,
      "count": 238,
      "max": [
        0.8331832885742188,
        0.9673439264297485,
        0.9390203952789307
      ],
      "min": [
        -0.8331832885742188,
        -0.9820418953895569,
        -0.5175896286964417
      ],
      "type": "VEC3"
    },
    {
      "bufferView": 1,
      "byteOffset": 19384,
      "componentType": 5126,
      "count": 238,
      "max": [
        3.555389145839617e+35,
        1.8177418295132121e+31
      ],
      "min": [
        0.0,
        0.0
      ],
      "type": "VEC2"
    },
    {
      "bufferView": 0,
      "byteOffset": 9864,
      "componentType": 5125,
      "count": 240,
      "type": "SCALAR"
    },
    {
      "bufferView": 2,
      "byteOffset": 63864,
      "componentType": 5126,
      "count": 69,
      "max": [
        0.35275799036026,
        5.352757930755615,
        5.484547138214111
      ],
      "min": [
        -0.35275501012802124,
        4.647244930267334,
        5.00663423538208
      ],
      "type": "VEC3"
    },
    {
      "bufferView": 2,
      "byteOffset": 64692,
      "componentType": 5126,
      "count": 69,
      "max": [
        0.9481188654899597,
        0.8943360447883606,
        0.9801517128944397
      ],
      "min": [
        -0.9481188654899597,
        -0.9159134030342102,
        0.25091010332107544
      ],
      "type": "VEC3"
    },
    {
      "bufferView": 1,
      "byteOffset": 21288,
      "componentType": 5126,
      "count": 69,
      "max": [
        1.382141315511923e+31,
        1.888646054189102e+31
      ],
      "min": [
        -0.9823513031005859,
        -0.9823513031005859
      ],
      "type": "VEC2"
    },
    {
      "bufferView": 0,
      "byteOffset": 10824,
      "componentType": 5125,
      "count": 72,
      "type": "SCALAR"
    }
  ],
  "asset": {
    "extras": {
      "author": "IronEqual (https://sketchfab.com/ie-niels)",
      "license": "CC-BY-4.0 (http://creativecommons.org/licenses/by/4.0/)",
      "source": "https://sketchfab.com/3d-models/blowfish-from-poly-by-google-1d9badce84914d58ab91825db85942a3",
      "title": "Blowfish from Poly by Google"
    },
    "generator": "Sketchfab-12.65.0",
    "version": "2.0"
  },
  "bufferViews": [
    {
      "buffer": 0,
      "byteLength": 11112,
      "name": "floatBufferViews",
      "target": 34963
    },
    {
      "buffer": 0,
      "byteLength": 21840,
      "byteOffset": 11112,
      "byteStride": 8,
      "name": "floatBufferViews",
      "target": 34962
    },
    {
      "buffer": 0,
      "byteLength": 65520,
      "byteOffset": 32952,
      "byteStride": 12,
      "name": "floatBufferViews",
      "target": 34962
    }
  ],
  "buffers": [
    {
      "byteLength": 98472,
      "uri": "scene.bin"
    }
  ],
  "materials": [
    {
      "doubleSided": true,
      "name": "DD9944",
      "pbrMetallicRoughness": {
        "baseColorFactor": [
          0.866667,
          0.6,
          0.266667,
          1.0
        ],
        "metallicFactor": 0.0,
        "roughnessFactor": 0.744802
      }
    },
    {
      "doubleSided": true,
      "name": "FFFFFF",
      "pbrMetallicRoughness": {
        "metallicFactor": 0.0,
        "roughnessFactor": 0.744802
      }
    },
    {
      "doubleSided": true,
      "name": "1A1A1A",
      "pbrMetallicRoughness": {
        "baseColorFactor": [
          0.101961,
          0.101961,
          0.101961,
          1.0
        ],
        "metallicFactor": 0.0,
        "roughnessFactor": 0.744802
      }
    },
    {
      "doubleSided": true,
      "name": "795548",
      "pbrMetallicRoughness": {
        "baseColorFactor": [
          0.47451,
          0.333333,
          0.282353,
          1.0
        ],
        "metallicFactor": 0.0,
        "roughnessFactor": 0.744802
      }
    }
  ],
  "meshes": [
    {
      "name": "Object_0",
      "primitives": [
        {
          "attributes": {
            "NORMAL": 1,
            "POSITION": 0,
            "TEXCOORD_0": 2
          },
          "indices": 3,
          "material": 0,
          "mode": 4
        }
      ]
    },
    {
      "name": "Object_1",
      "primitives": [
        {
          "attributes": {
            "NORMAL": 5,
            "POSITION": 4,
            "TEXCOORD_0": 6
          },
          "indices": 7,
          "material": 1,
          "mode": 4
        }
      ]
    },
    {
      "name": "Object_2",
      "primitives": [
        {
          "attributes": {
            "NORMAL": 9,
            "POSITION": 8,
            "TEXCOORD_0": 10
          },
          "indices": 11,
          "material": 2,
          "mode": 4
        }
      ]
    },
    {
      "name": "Object_3",
      "primitives": [
        {
          "attributes": {
            "NORMAL": 13,
            "POSITION": 12,
            "TEXCOORD_0": 14
          },
          "indices": 15,
          "material": 3,
          "mode": 4
        }
      ]
    }
  ],
  "nodes": [
    {
      "children": [
        1
      ],
      "matrix": [
        1.0,
        0.0,
        0.0,
        0.0,
        0.0,
        2.220446049250313e-16,
        -1.0,
        0.0,
        0.0,
        1.0,
        2.220446049250313e-16,
        0.0,
        0.0,
        0.0,
        0.0,
        1.0
      ],
      "name": "Sketchfab_model"
    },
    {
      "children": [
        2
      ],
      "name": "root"
    },
    {
      "children": [
        3
      ],
      "matrix": [
        1.0,
        0.0,
        0.0,
        0.0,
        0.0,
        2.220446049250313e-16,
        1.0,
        0.0,
        0.0,
        -1.0,
        2.220446049250313e-16,
        0.0,
        0.0,
        0.0,
        0.0,
        1.0
      ],
      "name": "GLTF_SceneRootNode"
    },
    {
      "children": [
        4,
        5,
        6,
        7
      ],
      "name": "node-0_0"
    },
    {
      "mesh": 0,
      "name": "Object_4"
    },
    {
      "mesh": 1,
      "name": "Object_5"
    },
    {
      "mesh": 2,
      "name": "Object_6"
    },
    {
      "mesh": 3,
      "name": "Object_7"
    }
  ],
  "scene": 0,
  "scenes": [
    {
      "name": "Sketchfab_Scene",
      "nodes": [
        0
      ]
    }
  ]
}
