{
  "accessors": [
    {
      "bufferView": 2,
      "componentType": 5126,
      "count": 1432,
      "max": [
        5.635878086090088,
        165.1535186767578,
        22.362470626831055
      ],
      "min": [
        -5.271100044250488,
        -211.313720703125,
        -13.616861343383789
      ],
      "type": "VEC3"
    },
    {
      "bufferView": 2,
      "byteOffset": 17184,
      "componentType": 5126,
      "count": 1432,
      "max": [
        0.999508261680603,
        0.9994357824325562,
        0.9995501041412354
      ],
      "min": [
        -0.9995083808898926,
        -0.9993826150894165,
        -0.9995502233505249
      ],
      "type": "VEC3"
    },
    {
      "bufferView": 3,
      "componentType": 5126,
      "count": 1432,
      "max": [
        0.9993773698806763,
        0.9980762004852295,
        0.9998477101325989,
        1.0
      ],
      "min": [
        -0.9997329115867615,
        -0.9999196529388428,
        -0.9992890357971191,
        -1.0
      ],
      "type": "VEC4"
    },
    {
      "bufferView": 1,
      "componentType": 5126,
      "count": 1432,
      "max": [
        0.9930970072746277,
        0.9994999766349792
      ],
      "min": [
        0.0005000000237487257,
        0.0005000000237487257
      ],
      "type": "VEC2"
    },
    {
      "bufferView": 0,
      "componentType": 5125,
      "count": 3927,
      "type": "SCALAR"
    }
  ],
  "asset": {
    "extras": {
      "author": "Dherian.Chacon.Chinchilla (https://sketchfab.com/Dherian.Chacon.Chinchilla)",
      "license": "CC-BY-4.0 (http://creativecommons.org/licenses/by/4.0/)",
      "source": "https://sketchfab.com/3d-models/old-fishing-rod-plus-substance-config-684374a089d742c4b7202e2301cf57ec",
      "title": "Old Fishing Rod plus Substance Config"
    },
    "generator": "Sketchfab-12.68.0",
    "version": "2.0"
  },
  "bufferViews": [
    {
      "buffer": 0,
      "byteLength": 15708,
      "name": "floatBufferViews",
      "target": 34963
    },
    {
      "buffer": 0,
      "byteLength": 11456,
      "byteOffset": 15708,
      "byteStride": 8,
      "name": "floatBufferViews",
      "target": 34962
    },
    {
      "buffer": 0,
      "byteLength": 34368,
      "byteOffset": 27164,
      "byteStride": 12,
      "name": "floatBufferViews",
      "target": 34962
    },
    {
      "buffer": 0,
      "byteLength": 22912,
      "byteOffset": 61532,
      "byteStride": 16,
      "name": "floatBufferViews",
      "target": 34962
    }
  ],
  "buffers": [
    {
      "byteLength": 84444,
      "uri": "scene.bin"
    }
  ],
  "images": [
    {
      "uri": "textures/M_FishingRod_baseColor.jpeg"
    },
    {
      "uri": "textures/M_FishingRod_metallicRoughness.png"
    },
    {
      "uri": "textures/M_FishingRod_normal.png"
    }
  ],
  "materials": [
    {
      "doubleSided": true,
      "name": "M_FishingRod",
      "normalTexture": {
        "index": 2
      },
      "pbrMetallicRoughness": {
        "baseColorTexture": {
          "index": 0
        },
        "metallicRoughnessTexture": {
          "index": 1
        }
      }
    }
  ],
  "meshes": [
    {
      "name": "defaultMaterial",
      "primitives": [
        {
          "attributes": {
            "NORMAL": 1,
            "POSITION": 0,
            "TANGENT": 2,
            "TEXCOORD_0": 3
          },
          "indices": 4,
          "material": 0,
          "mode": 4
        }
      ]
    }
  ],
  "nodes": [
    {
      "children": [
        1
      ],
      "matrix": [
        1.0,
        0.0,
        0.0,
        0.0,
        0.0,
        2.220446049250313e-16,
        -1.0,
        0.0,
        0.0,
        1.0,
        2.220446049250313e-16,
        0.0,
        0.0,
        0.0,
        0.0,
        1.0
      ],
      "name": "Sketchfab_model"
    },
    {
      "children": [
        2
      ],
      "matrix": [
        1.0,
        0.0,
        0.0,
        0.0,
        0.0,
        -4.371139006309477e-08,
        0.999999999999999,
        0.0,
        0.0,
        -0.999999999999999,
        -4.371139006309477e-08,
        0.0,
        0.0,
        0.0,
        0.0,
        1.0
      ],
      "name": "Collada visual scene group"
    },
    {
      "children": [
        3
      ],
      "matrix": [
        0.042131,
        0.0,
        -0.999112,
        0.0,
        -0.026935,
        0.999637,
        -0.001136,
        0.0,
        0.998749,
        0.026959,
        0.042116,
        0.0,
        2.703305,
        204.396927,
        0.284091,
        1.0
      ],
      "name": "Cylinder030"
    },
    {
      "mesh": 0,
      "name": "defaultMaterial"
    }
  ],
  "samplers": [
    {
      "magFilter": 9729,
      "minFilter": 9987,
      "wrapS": 10497,
      "wrapT": 10497
    }
  ],
  "scene": 0,
  "scenes": [
    {
      "name": "Sketchfab_Scene",
      "nodes": [
        0
      ]
    }
  ],
  "textures": [
    {
      "sampler": 0,
      "source": 0
    },
    {
      "sampler": 0,
      "source": 1
    },
    {
      "sampler": 0,
      "source": 2
    }
  ]
}
