{
    "accessors": [
        {
            "bufferView": 2,
            "componentType": 5126,
            "count": 557,
            "max": [0.9132508635520935, 0.9173654913902283, 0.8389245271682739],
            "min": [
                -0.8075159192085266, -2.2263669967651367, -0.7760238647460938
            ],
            "type": "VEC3"
        },
        {
            "bufferView": 2,
            "byteOffset": 6684,
            "componentType": 5126,
            "count": 557,
            "max": [0.9976832270622253, 0.9969026446342468, 0.9993759393692017],
            "min": [
                -0.9968847632408142, -0.9996756315231323, -0.9998031854629517
            ],
            "type": "VEC3"
        },
        {
            "bufferView": 1,
            "componentType": 5125,
            "count": 3330,
            "type": "SCALAR"
        },
        {
            "bufferView": 4,
            "componentType": 5126,
            "count": 14,
            "max": [
                100.0, 0.6103296875953674, 0.7739320993423462, 0.0,
                0.03297515958547592, 100.00000762939453, 0.7495236396789551,
                0.0, 0.985633373260498, 0.38214111328125, 100.0, 0.0,
                0.18464642763137817, 0.7237565517425537, 1.717952013015747, 1.0
            ],
            "min": [
                -0.9605514407157898, -0.739357590675354, -0.875848114490509,
                0.0, -0.24333511292934418, -0.9914571046829224, 0.0, 0.0,
                -0.9893382787704468, -0.65433269739151, -0.7541111707687378,
                0.0, -0.2657439112663269, -1.1821931600570679,
                -0.6718188524246216, 1.0
            ],
            "type": "MAT4"
        },
        {
            "bufferView": 0,
            "componentType": 5123,
            "count": 557,
            "type": "VEC4"
        },
        {
            "bufferView": 3,
            "componentType": 5126,
            "count": 557,
            "max": [
                1.0, 0.48849910497665405, 0.31471744179725647,
                0.24194221198558807
            ],
            "min": [0.25493887066841125, 0.0, 0.0, 0.0],
            "type": "VEC4"
        },
        {
            "bufferView": 5,
            "componentType": 5126,
            "count": 31,
            "max": [4.125],
            "min": [0.0],
            "type": "SCALAR"
        },
        {
            "bufferView": 6,
            "componentType": 5126,
            "count": 31,
            "max": [
                1.0259101346221655e-9, 0.8947985768318176,
                -8.985807098405019e-10
            ],
            "min": [
                1.0259099125775606e-9, 0.8947985768318176,
                -8.985808208628043e-10
            ],
            "type": "VEC3"
        },
        {
            "bufferView": 5,
            "byteOffset": 124,
            "componentType": 5126,
            "count": 198,
            "max": [4.125],
            "min": [0.0],
            "type": "SCALAR"
        },
        {
            "bufferView": 7,
            "componentType": 5126,
            "count": 198,
            "max": [
                0.9314565658569336, 0.020759860053658485, 0.042947281152009964,
                0.585027277469635
            ],
            "min": [
                -0.8647215962409973, -0.0064280154183506966,
                -0.011658803559839725, -0.4980100691318512
            ],
            "type": "VEC4"
        },
        {
            "bufferView": 5,
            "byteOffset": 916,
            "componentType": 5126,
            "count": 31,
            "max": [4.125],
            "min": [0.0],
            "type": "SCALAR"
        },
        {
            "bufferView": 6,
            "byteOffset": 372,
            "componentType": 5126,
            "count": 31,
            "max": [
                1.0259101346221655e-9, 0.8947985768318176,
                -8.985807098405019e-10
            ],
            "min": [
                1.0259099125775606e-9, 0.8947985768318176,
                -8.985808208628043e-10
            ],
            "type": "VEC3"
        },
        {
            "bufferView": 5,
            "byteOffset": 1040,
            "componentType": 5126,
            "count": 196,
            "max": [4.125],
            "min": [0.0],
            "type": "SCALAR"
        },
        {
            "bufferView": 7,
            "byteOffset": 3168,
            "componentType": 5126,
            "count": 196,
            "max": [
                -0.3604804575443268, 0.46376100182533264, 0.7074146866798401,
                0.40151992440223694
            ],
            "min": [
                -0.6042236089706421, 0.3312596380710602, 0.6733730435371399,
                0.2643384635448456
            ],
            "type": "VEC4"
        },
        {
            "bufferView": 5,
            "byteOffset": 1824,
            "componentType": 5126,
            "count": 31,
            "max": [4.125],
            "min": [0.0],
            "type": "SCALAR"
        },
        {
            "bufferView": 6,
            "byteOffset": 744,
            "componentType": 5126,
            "count": 31,
            "max": [
                1.0259101346221655e-9, 0.8947985768318176,
                -8.985807098405019e-10
            ],
            "min": [
                1.0259099125775606e-9, 0.8947985768318176,
                -8.985808208628043e-10
            ],
            "type": "VEC3"
        },
        {
            "bufferView": 5,
            "byteOffset": 1948,
            "componentType": 5126,
            "count": 198,
            "max": [4.125],
            "min": [0.0],
            "type": "SCALAR"
        },
        {
            "bufferView": 7,
            "byteOffset": 6304,
            "componentType": 5126,
            "count": 198,
            "max": [
                0.30264222621917725, 0.45567017793655396, 0.940590500831604,
                -0.1319226324558258
            ],
            "min": [
                0.19199316203594208, 0.22520315647125244, 0.7949722409248352,
                -0.2625764310359955
            ],
            "type": "VEC4"
        },
        {
            "bufferView": 5,
            "byteOffset": 2740,
            "componentType": 5126,
            "count": 197,
            "max": [4.125],
            "min": [0.0],
            "type": "SCALAR"
        },
        {
            "bufferView": 7,
            "byteOffset": 9472,
            "componentType": 5126,
            "count": 197,
            "max": [
                0.7168790698051453, 0.03186248242855072, 0.039075516164302826,
                0.7451805472373962
            ],
            "min": [
                0.6656932830810547, -0.041792161762714386,
                -0.024749115109443665, 0.69498211145401
            ],
            "type": "VEC4"
        },
        {
            "bufferView": 5,
            "byteOffset": 3528,
            "componentType": 5126,
            "count": 197,
            "max": [4.125],
            "min": [0.0],
            "type": "SCALAR"
        },
        {
            "bufferView": 7,
            "byteOffset": 12624,
            "componentType": 5126,
            "count": 197,
            "max": [
                -0.07785803079605103, -0.4160468280315399, 0.30015233159065247,
                0.9013130068778992
            ],
            "min": [
                -0.11515989899635315, -0.43063071370124817, 0.09173580259084702,
                0.8435273766517639
            ],
            "type": "VEC4"
        },
        {
            "bufferView": 5,
            "byteOffset": 4316,
            "componentType": 5126,
            "count": 197,
            "max": [4.125],
            "min": [0.0],
            "type": "SCALAR"
        },
        {
            "bufferView": 7,
            "byteOffset": 15776,
            "componentType": 5126,
            "count": 197,
            "max": [
                -0.30521559715270996, -0.44092699885368347, 0.7110244631767273,
                0.45484697818756104
            ],
            "min": [
                -0.33852818608283997, -0.5325988531112671, 0.6441468000411987,
                0.432217538356781
            ],
            "type": "VEC4"
        },
        {
            "bufferView": 5,
            "byteOffset": 5104,
            "componentType": 5126,
            "count": 198,
            "max": [4.125],
            "min": [0.0],
            "type": "SCALAR"
        },
        {
            "bufferView": 7,
            "byteOffset": 18928,
            "componentType": 5126,
            "count": 198,
            "max": [
                0.17467260360717773, 0.9659833908081055, -0.06443607807159424,
                0.1818409115076065
            ],
            "min": [
                -0.000342195708071813, 0.7793384790420532, -0.6252759695053101,
                -0.04076028987765312
            ],
            "type": "VEC4"
        },
        {
            "bufferView": 5,
            "byteOffset": 5896,
            "componentType": 5126,
            "count": 198,
            "max": [4.125],
            "min": [0.0],
            "type": "SCALAR"
        },
        {
            "bufferView": 7,
            "byteOffset": 22096,
            "componentType": 5126,
            "count": 198,
            "max": [
                0.37934666872024536, 0.5139846205711365, 0.6638990044593811,
                0.5800300240516663
            ],
            "min": [
                -0.3640679717063904, -0.5406222939491272, -0.6880513429641724,
                -0.49819251894950867
            ],
            "type": "VEC4"
        }
    ],
    "animations": [
        {
            "channels": [
                {
                    "sampler": 0,
                    "target": {
                        "node": 8,
                        "path": "translation"
                    }
                },
                {
                    "sampler": 1,
                    "target": {
                        "node": 8,
                        "path": "rotation"
                    }
                },
                {
                    "sampler": 2,
                    "target": {
                        "node": 10,
                        "path": "translation"
                    }
                },
                {
                    "sampler": 3,
                    "target": {
                        "node": 10,
                        "path": "rotation"
                    }
                },
                {
                    "sampler": 4,
                    "target": {
                        "node": 12,
                        "path": "translation"
                    }
                },
                {
                    "sampler": 5,
                    "target": {
                        "node": 12,
                        "path": "rotation"
                    }
                },
                {
                    "sampler": 6,
                    "target": {
                        "node": 7,
                        "path": "rotation"
                    }
                },
                {
                    "sampler": 7,
                    "target": {
                        "node": 15,
                        "path": "rotation"
                    }
                },
                {
                    "sampler": 8,
                    "target": {
                        "node": 14,
                        "path": "rotation"
                    }
                },
                {
                    "sampler": 9,
                    "target": {
                        "node": 18,
                        "path": "rotation"
                    }
                },
                {
                    "sampler": 10,
                    "target": {
                        "node": 17,
                        "path": "rotation"
                    }
                }
            ],
            "name": "StandardMoving",
            "samplers": [
                {
                    "input": 6,
                    "interpolation": "LINEAR",
                    "output": 7
                },
                {
                    "input": 8,
                    "interpolation": "LINEAR",
                    "output": 9
                },
                {
                    "input": 10,
                    "interpolation": "LINEAR",
                    "output": 11
                },
                {
                    "input": 12,
                    "interpolation": "LINEAR",
                    "output": 13
                },
                {
                    "input": 14,
                    "interpolation": "LINEAR",
                    "output": 15
                },
                {
                    "input": 16,
                    "interpolation": "LINEAR",
                    "output": 17
                },
                {
                    "input": 18,
                    "interpolation": "LINEAR",
                    "output": 19
                },
                {
                    "input": 20,
                    "interpolation": "LINEAR",
                    "output": 21
                },
                {
                    "input": 22,
                    "interpolation": "LINEAR",
                    "output": 23
                },
                {
                    "input": 24,
                    "interpolation": "LINEAR",
                    "output": 25
                },
                {
                    "input": 26,
                    "interpolation": "LINEAR",
                    "output": 27
                }
            ]
        }
    ],
    "asset": {
        "extras": {
            "author": "ricksticky (https://sketchfab.com/ricksticky)",
            "license": "CC-BY-4.0 (http://creativecommons.org/licenses/by/4.0/)",
            "source": "https://sketchfab.com/3d-models/simple-jellyfish-f77876d8297846eeb23c4ad82dbebb97",
            "title": "Simple Jellyfish"
        },
        "generator": "Sketchfab-12.65.0",
        "version": "2.0"
    },
    "bufferViews": [
        {
            "buffer": 0,
            "byteLength": 4456,
            "byteStride": 8,
            "name": "shortBufferViews",
            "target": 34962
        },
        {
            "buffer": 0,
            "byteLength": 13320,
            "byteOffset": 4456,
            "name": "floatBufferViews",
            "target": 34963
        },
        {
            "buffer": 0,
            "byteLength": 13368,
            "byteOffset": 17776,
            "byteStride": 12,
            "name": "floatBufferViews",
            "target": 34962
        },
        {
            "buffer": 0,
            "byteLength": 8912,
            "byteOffset": 31144,
            "byteStride": 16,
            "name": "floatBufferViews",
            "target": 34962
        },
        {
            "buffer": 0,
            "byteLength": 896,
            "byteOffset": 40056,
            "name": "floatBufferViews"
        },
        {
            "buffer": 0,
            "byteLength": 6688,
            "byteOffset": 40952,
            "name": "floatBufferViews"
        },
        {
            "buffer": 0,
            "byteLength": 1116,
            "byteOffset": 47640,
            "byteStride": 12,
            "name": "floatBufferViews"
        },
        {
            "buffer": 0,
            "byteLength": 25264,
            "byteOffset": 48756,
            "byteStride": 16,
            "name": "floatBufferViews"
        }
    ],
    "buffers": [
        {
            "byteLength": 74020,
            "uri": "scene.bin"
        }
    ],
    "materials": [
        {
            "alphaMode": "BLEND",
            "doubleSided": true,
            "emissiveFactor": [
                0.0018137525853379353, 0.6613300472647476, 0.8752090792194853
            ],
            "extensions": {
                "KHR_materials_pbrSpecularGlossiness": {
                    "diffuseFactor": [
                        0.05251616097334639, 0.0898454181370579,
                        0.19227916986100624, 0.39699616543082306
                    ],
                    "glossinessFactor": 0.9692829043366188,
                    "specularFactor": [
                        0.007461281709892805, 0.007461281709892805,
                        0.007461281709892805
                    ]
                }
            },
            "name": "Scene_-_Root"
        }
    ],
    "meshes": [
        {
            "name": "Group34460__0",
            "primitives": [
                {
                    "attributes": {
                        "JOINTS_0": 4,
                        "NORMAL": 1,
                        "POSITION": 0,
                        "WEIGHTS_0": 5
                    },
                    "indices": 2,
                    "material": 0,
                    "mode": 4
                }
            ]
        }
    ],
    "nodes": [
        {
            "children": [1],
            "matrix": [
                1.0, 0.0, 0.0, 0.0, 0.0, 2.220446049250313e-16, -1.0, 0.0, 0.0,
                1.0, 2.220446049250313e-16, 0.0, 0.0, 0.0, 0.0, 1.0
            ],
            "name": "Sketchfab_model"
        },
        {
            "children": [2],
            "matrix": [
                1.0, 0.0, 0.0, 0.0, 0.0, 0.0, 1.0, 0.0, 0.0, -1.0, 0.0, 0.0,
                0.0, 0.0, 0.0, 1.0
            ],
            "name": "1c184666151e4f70b93148e3d0073f9d.fbx"
        },
        {
            "children": [3],
            "name": "Object_2"
        },
        {
            "children": [4, 22],
            "name": "RootNode"
        },
        {
            "children": [5],
            "name": "Armature",
            "rotation": [-0.7071068286895752, 0.0, 0.0, 0.7071067094802856],
            "scale": [100.0, 100.0, 100.0],
            "translation": [0.0, -2.3853540420532227, 2.8789281845092773]
        },
        {
            "children": [6, 21, 20],
            "name": "Object_5"
        },
        {
            "children": [7, 14, 17],
            "name": "_rootJoint"
        },
        {
            "children": [8, 10, 12],
            "name": "Bone_00",
            "rotation": [
                0.696970522403717, -0.010904191993176937, 0.012439936399459839,
                0.7169089317321777
            ],
            "scale": [1.0, 0.9999999403953552, 0.9999998807907104]
        },
        {
            "children": [9],
            "name": "Bone.001_01",
            "rotation": [
                0.9314565658569336, 0.002918427810072899, 0.030241182073950768,
                -0.36258184909820557
            ],
            "scale": [0.9999999403953552, 1.0, 0.9999998211860657],
            "translation": [
                1.025910023599863e-9, 0.8947985768318176, -8.985807653516531e-10
            ]
        },
        {
            "name": "Bone.001_end_010",
            "rotation": [
                -8.326672684688674e-17, -3.469446951953614e-18,
                -1.3877787807814457e-17, 1.0
            ],
            "translation": [-1.734723475976807e-18, 1.0650181770324707, 0.0]
        },
        {
            "children": [11],
            "name": "Bone.002_02",
            "rotation": [
                -0.6042236089706421, 0.33130621910095215, 0.6733730435371399,
                0.2678036391735077
            ],
            "scale": [
                1.0000001192092896, 1.0000001192092896, 0.9999999403953552
            ],
            "translation": [
                1.025910023599863e-9, 0.8947985768318176, -8.985807653516531e-10
            ]
        },
        {
            "name": "Bone.002_end_08",
            "rotation": [
                -1.8214596497756474e-17, -1.734723475976807e-18,
                1.3877787807814457e-17, 1.0
            ],
            "translation": [0.0, 0.9616693258285522, -1.1102230246251565e-16]
        },
        {
            "children": [13],
            "name": "Bone.003_03",
            "rotation": [
                0.19199317693710327, 0.22520318627357483, 0.9405449032783508,
                -0.16672632098197937
            ],
            "scale": [1.0, 1.0, 1.0000001192092896],
            "translation": [
                1.025910023599863e-9, 0.8947985768318176, -8.985807653516531e-10
            ]
        },
        {
            "name": "Bone.003_end_011",
            "rotation": [
                -2.7755575615628914e-17, -2.7755575615628914e-17,
                2.7755575615628914e-17, 1.0
            ],
            "translation": [0.0, 1.0174235105514526, 0.0]
        },
        {
            "children": [15],
            "name": "Bone.004_04",
            "rotation": [
                -0.3251100182533264, -0.49501654505729675, 0.673501193523407,
                0.44233274459838867
            ],
            "scale": [
                0.9999998807907104, 0.9999998211860657, 0.9999998807907104
            ]
        },
        {
            "children": [16],
            "name": "Bone.005_05",
            "rotation": [
                -0.07785803079605103, -0.41613608598709106, 0.09173580259084702,
                0.9013065099716187
            ],
            "scale": [1.0, 1.0000001192092896, 1.0],
            "translation": [
                1.2887390710147884e-8, 1.189374566078186, 2.9802322387695313e-8
            ]
        },
        {
            "name": "Bone.005_end_012",
            "rotation": [
                -1.3877787807814457e-17, -2.7755575615628914e-17,
                3.469446951953614e-18, 1.0
            ],
            "translation": [
                -5.551115123125783e-17, 1.208825707435608,
                -5.551115123125783e-17
            ]
        },
        {
            "children": [18],
            "name": "Bone.006_06",
            "rotation": [
                -0.28127461671829224, 0.3335740864276886, -0.6878793835639954,
                0.580030083656311
            ],
            "scale": [
                0.9999999403953552, 0.9999998807907104, 0.9999999403953552
            ]
        },
        {
            "children": [19],
            "name": "Bone.007_07",
            "rotation": [
                -0.00034215470077469945, 0.7793384790420532,
                -0.6252759695053101, -0.04076024144887924
            ],
            "scale": [1.0, 0.9999996423721313, 1.0],
            "translation": [
                1.0950913065244094e-8, 1.7415038347244263, -5.960464477539063e-8
            ]
        },
        {
            "name": "Bone.007_end_09",
            "rotation": [6.938893903907228e-17, 0.0, 0.0, 1.0],
            "translation": [
                -1.3877787807814457e-17, 1.4473395347595215,
                2.220446049250313e-16
            ]
        },
        {
            "matrix": [
                100.0000007584655, -6.827439225087772e-9, 6.649081285559077e-9,
                0.0, 6.82743839294135e-9, 100.00000423697642,
                1.6087029172773274e-5, 0.0, -6.649082531316821e-9,
                -1.608702896987069e-5, 100.00000297569856, 0.0,
                -6.43645553521921e-10, 7.68597714362329e-8,
                6.880009539855791e-8, 1.0
            ],
            "name": "Object_20"
        },
        {
            "mesh": 0,
            "name": "Object_21",
            "skin": 0
        },
        {
            "name": "Group34460",
            "rotation": [8.146033536604591e-8, 0.0, 0.0, 1.0],
            "scale": [100.0, 100.0, 100.0]
        }
    ],
    "scene": 0,
    "scenes": [
        {
            "name": "Sketchfab_Scene",
            "nodes": [0]
        }
    ],
    "skins": [
        {
            "inverseBindMatrices": 3,
            "joints": [6, 7, 8, 9, 10, 11, 12, 13, 14, 15, 16, 17, 18, 19],
            "skeleton": 6
        }
    ]
}
