{
  "accessors": [
    {
      "bufferView": 2,
      "componentType": 5126,
      "count": 275,
      "max": [
        31.878122329711914,
        17.10448455810547,
        22.991073608398438
      ],
      "min": [
        -28.542112350463867,
        -16.157176971435547,
        -41.35117721557617
      ],
      "type": "VEC3"
    },
    {
      "bufferView": 2,
      "byteOffset": 3300,
      "componentType": 5126,
      "count": 275,
      "max": [
        0.9963584542274475,
        0.9997279047966003,
        0.9924713373184204
      ],
      "min": [
        -0.9963584542274475,
        -0.9998769164085388,
        -0.9464328289031982
      ],
      "type": "VEC3"
    },
    {
      "bufferView": 1,
      "componentType": 5126,
      "count": 275,
      "max": [
        0.9940290451049805,
        0.9890028238296509
      ],
      "min": [
        0.03184634447097778,
        0.007623106241226196
      ],
      "type": "VEC2"
    },
    {
      "bufferView": 0,
      "componentType": 5125,
      "count": 948,
      "type": "SCALAR"
    },
    {
      "bufferView": 2,
      "byteOffset": 6600,
      "componentType": 5126,
      "count": 370,
      "max": [
        55.90364074707031,
        2.1663646697998047,
        26.86989974975586
      ],
      "min": [
        -53.896244049072266,
        -17.69580078125,
        -2.665618896484375
      ],
      "type": "VEC3"
    },
    {
      "bufferView": 2,
      "byteOffset": 11040,
      "componentType": 5126,
      "count": 370,
      "max": [
        0.9569472670555115,
        0.9978154897689819,
        0.986295223236084
      ],
      "min": [
        -0.9609116911888123,
        -0.9987422227859497,
        -0.9999988675117493
      ],
      "type": "VEC3"
    },
    {
      "bufferView": 1,
      "byteOffset": 2200,
      "componentType": 5126,
      "count": 370,
      "max": [
        0.9661175012588501,
        0.9766053557395935
      ],
      "min": [
        0.06104762852191925,
        0.018856287002563477
      ],
      "type": "VEC2"
    },
    {
      "bufferView": 0,
      "byteOffset": 3792,
      "componentType": 5125,
      "count": 1368,
      "type": "SCALAR"
    },
    {
      "bufferView": 2,
      "byteOffset": 15480,
      "componentType": 5126,
      "count": 126,
      "max": [
        10.007802963256836,
        13.114904403686523,
        44.28582763671875
      ],
      "min": [
        -10.007802963256836,
        -9.952751159667969,
        10.796770095825195
      ],
      "type": "VEC3"
    },
    {
      "bufferView": 2,
      "byteOffset": 16992,
      "componentType": 5126,
      "count": 126,
      "max": [
        0.9977363348007202,
        0.99921715259552,
        0.927781879901886
      ],
      "min": [
        -0.9977363348007202,
        -0.9999991655349731,
        -0.9982948899269104
      ],
      "type": "VEC3"
    },
    {
      "bufferView": 1,
      "byteOffset": 5160,
      "componentType": 5126,
      "count": 126,
      "max": [
        0.8936481475830078,
        0.8522758483886719
      ],
      "min": [
        0.08633428812026978,
        0.22603657841682434
      ],
      "type": "VEC2"
    },
    {
      "bufferView": 0,
      "byteOffset": 9264,
      "componentType": 5125,
      "count": 336,
      "type": "SCALAR"
    }
  ],
  "asset": {
    "extras": {
      "author": "Bato Balvanera (https://sketchfab.com/batobalvanera)",
      "license": "CC-BY-4.0 (http://creativecommons.org/licenses/by/4.0/)",
      "source": "https://sketchfab.com/3d-models/torti-stylized-turtle-29b083db392a468c8726e5b42d644c29",
      "title": "Torti - Stylized Turtle"
    },
    "generator": "Sketchfab-14.13.0",
    "version": "2.0"
  },
  "bufferViews": [
    {
      "buffer": 0,
      "byteLength": 10608,
      "name": "floatBufferViews",
      "target": 34963
    },
    {
      "buffer": 0,
      "byteLength": 6168,
      "byteOffset": 10608,
      "byteStride": 8,
      "name": "floatBufferViews",
      "target": 34962
    },
    {
      "buffer": 0,
      "byteLength": 18504,
      "byteOffset": 16776,
      "byteStride": 12,
      "name": "floatBufferViews",
      "target": 34962
    }
  ],
  "buffers": [
    {
      "byteLength": 35280,
      "uri": "scene.bin"
    }
  ],
  "images": [
    {
      "uri": "textures/Turtle_Body_MAT_baseColor.jpeg"
    },
    {
      "uri": "textures/Turtle_Arms_MAT_baseColor.jpeg"
    },
    {
      "uri": "textures/Turtle_Head_MAT_baseColor.jpeg"
    }
  ],
  "materials": [
    {
      "doubleSided": true,
      "name": "Turtle_Body_MAT",
      "pbrMetallicRoughness": {
        "baseColorTexture": {
          "index": 0
        },
        "metallicFactor": 0.0,
        "roughnessFactor": 0.6
      }
    },
    {
      "doubleSided": true,
      "name": "Turtle_Arms_MAT",
      "pbrMetallicRoughness": {
        "baseColorTexture": {
          "index": 1
        },
        "metallicFactor": 0.0,
        "roughnessFactor": 0.6
      }
    },
    {
      "doubleSided": true,
      "name": "Turtle_Head_MAT",
      "pbrMetallicRoughness": {
        "baseColorTexture": {
          "index": 2
        },
        "metallicFactor": 0.0,
        "roughnessFactor": 0.6
      }
    }
  ],
  "meshes": [
    {
      "name": "Turtle_Turtle_Body_MAT_0",
      "primitives": [
        {
          "attributes": {
            "NORMAL": 1,
            "POSITION": 0,
            "TEXCOORD_0": 2
          },
          "indices": 3,
          "material": 0,
          "mode": 4
        }
      ]
    },
    {
      "name": "Turtle_Turtle_Arms_MAT_0",
      "primitives": [
        {
          "attributes": {
            "NORMAL": 5,
            "POSITION": 4,
            "TEXCOORD_0": 6
          },
          "indices": 7,
          "material": 1,
          "mode": 4
        }
      ]
    },
    {
      "name": "Turtle_Turtle_Head_MAT_0",
      "primitives": [
        {
          "attributes": {
            "NORMAL": 9,
            "POSITION": 8,
            "TEXCOORD_0": 10
          },
          "indices": 11,
          "material": 2,
          "mode": 4
        }
      ]
    }
  ],
  "nodes": [
    {
      "children": [
        1
      ],
      "matrix": [
        1.0,
        0.0,
        0.0,
        0.0,
        0.0,
        2.220446049250313e-16,
        -1.0,
        0.0,
        0.0,
        1.0,
        2.220446049250313e-16,
        0.0,
        0.0,
        0.0,
        0.0,
        1.0
      ],
      "name": "Sketchfab_model"
    },
    {
      "children": [
        2
      ],
      "matrix": [
        0.009999999776482582,
        0.0,
        0.0,
        0.0,
        0.0,
        0.0,
        0.009999999776482582,
        0.0,
        0.0,
        -0.009999999776482582,
        0.0,
        0.0,
        0.0,
        0.0,
        0.0,
        1.0
      ],
      "name": "13520a42698348d8928ad00388248f20.fbx"
    },
    {
      "children": [
        3
      ],
      "name": "RootNode"
    },
    {
      "children": [
        4,
        5,
        6
      ],
      "matrix": [
        1.0,
        0.0,
        0.0,
        0.0,
        0.0,
        1.0,
        0.0,
        0.0,
        0.0,
        0.0,
        1.0,
        0.0,
        0.0,
        16.157176971435547,
        0.0,
        1.0
      ],
      "name": "Turtle"
    },
    {
      "mesh": 0,
      "name": "Turtle_Turtle_Body_MAT_0"
    },
    {
      "mesh": 1,
      "name": "Turtle_Turtle_Arms_MAT_0"
    },
    {
      "mesh": 2,
      "name": "Turtle_Turtle_Head_MAT_0"
    }
  ],
  "samplers": [
    {
      "magFilter": 9729,
      "minFilter": 9987,
      "wrapS": 10497,
      "wrapT": 10497
    }
  ],
  "scene": 0,
  "scenes": [
    {
      "name": "Sketchfab_Scene",
      "nodes": [
        0
      ]
    }
  ],
  "textures": [
    {
      "sampler": 0,
      "source": 0
    },
    {
      "sampler": 0,
      "source": 1
    },
    {
      "sampler": 0,
      "source": 2
    }
  ]
}
